<svg xmlns="http://www.w3.org/2000/svg" xml:space="preserve" style="enable-background:new 0 0 1680 1024" viewBox="0 0 1680 1024"><path d="M1545.3 282.2s11.1-12.1-38.2-23.1c0 0-106.6 51.2-174.9 129.6-27.3 31.3-44.8 60.8-54.8 90.7-14.4-11.3-25-24.6-33.7-37.5-21.4-31.9-56.3-44.9-56.3-44.9 28.1-4.7 151.8-49.2 173.6-57.3 21.8-8 40.2-25.2 31.8-30.8-2.5-1.7-15.9-14.7-29.5-9.4-25.8 10.2-95.2 20.3-158.5 7-31.8-6.7-67.7-26.5-74.4-32.5-6.7-6-11.1-1.7-11.1-1.7s-4.4 4.7 20.4 24.1c46.8 36.7 143.4 37.9 143.4 37.9s-39.6 18.8-89.5 33.5-96.4 13.9-115.9 18.1c-2.4.5-4.9 2.7-7.1 5.6-18.6-11.7-41.5-28-64.2-49.4 3.8-7.3-6.5-9.2-6.5-9.2s-1.6-.5-4.5-1.5c-9.3-9.5-18.4-19.8-27-31 0-2.6.1-5.2.2-7.9.1-3.4-4.7-5.8-11.3-7.5-23.6-34.7-42.3-76.9-48.5-127.3-1.6-12.9-36.1-17.2-50.8-9.6-8 4.2-3.7 68.1 52.8 141.6v.2c0 1.2 0 4-.1 8.1-13.4-6.3-25.1-12.7-32.1-18.5-21.8-18-19.4-43.2-16-56.3 1.1-4.2-46.8-15.4-56-9.7-4.4 2.7-8.4 19.4-2.7 32.5 5.2 11.9 23.1 37.9 48.9 50.3 0 0-70.7-18.8-112.9-18.8-11.5 0-21.4.6-26.2 6.2-4-3.1-10.6-5.4-15.5-6.9-10-3-35.2.5-46.2 3-11.1 2.5-34.7 2-48.7 1.5-21.4-.8-36.2-10-36.2-10s-4-19.1-13.1-22.1c-9-3-26.1-1.5-26.1-1.5s-34.1-28.1-34.1-89c0-12.1-52.3-5.5-51.8 4 1.5 28.3 9 82.9 68.8 116.6 0 0 11.5 49.5 20.1 108.9-26.3 5.2-55.6 3.5-55.6 3.5-3.5-3.5-8.8-12.8-18.4-13.1-5.6-.1-25.1 2.8-25.1 2.8-24.6-8.6-61.5-31.9-86.2-62.4-24.6-30.4-19.4-56.3-23.1-60.3-7.3-7.8-48.5-.8-48 4.8 5.5 60.4 35.4 84.2 59 101.8 23.6 17.6 88.4 38.7 88.4 38.7 4.9 3.2 12.8 17.1 21.5 34.8-2.7.3-6.2 1.2-9.9 3.6-4.5 2.9-17.1 13.3-22.1 17.3s-20.1 14.8-33.4 14.6-25.9-8-44.5-25.4c-8.3-7.8-32.9 4.5-35.4 7s-4.5 9.8-.3 13.3c4.3 3.5 25.9 20.1 51.8 25.4 0 0-11.1 7.3-22.6 9-11.6 1.8-63.1 4.4-85.4 7-39 4.5-84.2 20.8-106.8 46.5-22.6 25.6-29.1 52.6-26.9 54.5 1.7 1.4 23.6 19.6 62.3 2.5 0 0 15.6-40.5 45.2-53.8 29.7-13.3 70.4-15.8 97.3-18.6 26.9-2.8 46.8-9.3 54.3-15.1 0 0-20.6 39.2-17.6 80.9.2 3.1 13.1 10.8 25.1 13.5-8.9 14.4-5.6 31.3 12.2 54.6 21.5 28.1 101.9 91.8 198 104.6 96.2 12.8 118-20.1 122-38.5s-11.7-83.1-20.8-103.2c-9-20.1-11.7-38.2-63.3-33.5-52.9 4.8-41.9 15.7-41.9 15.7s81.4 112.5 56.6 133.7c-19.6 16.7-107.9-3.7-177.2-48.3-69.4-44.6-56.3-73.7-45.2-87.1 10.7-13 77.1-50.2 173.2-38.2 96.2 12.1 174.4 65.7 209.7 92.5 16.8 12.7 56 49.9 71.4 44.9 15.4-5 18.6-48.1 13.7-52.9-23.4-23.3-120.3-79.1-221.8-98.2s-194-1.4-242.9 22.1c-8.1 3.9-15.2 7.7-21.3 11.5 2.3-21.3 4.2-56.9 19.1-78.9 19.9-29.3 37.1-45.1 43.5-48.6 14 31.7 26.6 63 29.1 67.5 5 9 27.9 1.5 33.7-.8s13.3-9.5 12.3-13.8c-1-4.3-17.6-48-17.6-48s12.3-13.5 21.3-23.8c2 27.4 2.5 53.9 0 76.1-1 9 42.7 6 46.2-2.5 6.7-16.3 4-70.9-1-127.6l62.8-30.6s-34.7 84.4-42.8 170.9c-1.1 11.5 47.3 19.1 49.3 8 6.8-37.6 15-100.3 38.3-158.2 30.4 32.6 91.8 110.3 101.2 214.3.7 7.4 51.6 16.8 55 1.3 6.8-31.1 10.5-114.4 34.5-193 7.2-23.5-53.1-19.2-55.3-11.4-4.2 15.1-16.4 93.8-16.4 93.8s-59-99.2-89.8-124.7c0 0 79.4-4.6 184.7 29.4-6.3 59-19.8 132.3-48.7 196.6-9 20.1 6.5 23.1 18.1 28.7 11.6 5.5 24.5 16.6 43.2-20.6 2.5-4.9 4.9-10.3 7.2-16.1 25.7-2.3 72.4-7.6 120.3-18.9-40 13.1-79.4 29.8-103.3 50.6-51.9 45.1-35.9 110.6-6.1 147.8 33.2 41.2 165.8 107.6 270.4 110.6 104.5 3 133-33.8 141.7-67.3 14.4-55.3-16.3-105.8-30.1-176.9-7-36.2-8-72.9-3.3-108.6 38.5 8.4 72.7 2.8 113.6-8 67.3-17.7 121.6-66.3 116.6-67-7.8-1-101.2 57.3-173.9 56.9-19.7-.1-36.6-2.7-51.1-7 14.2-43.2 28.3-68.3 54.4-95.5 59.5-61 171.3-123.2 171.3-123.2zM504.2 451.4c-1.7-4.6-15.2-34.7-15.2-34.7 14.3-1.5 37.2-2.3 37.4 1 .6 7.3-21.4 35.8-22.2 33.7zm74.1-91.5c-1.7-6.8-9-64.8-9-64.8 23.6 6 64 4.8 79.9 4 15.8-.7-70.2 63.8-70.9 60.8zm43.7 0s73.8-49.5 89.8-61.9c1.1 2.3 3.1 4.9 6.9 8.2-3.9.3-7.5 1.2-9.2 2C699 313 622 359.9 622 359.9zm86.3-4.7c6-10.8 12.7-21.2 20.3-30.9 2.3-2.9 3.7-5.3 4.5-7.4 2.8 1.9 5.9 3.9 9.4 6 30.5 19.1 67.7 39.2 67.7 39.2s-57.6-12.3-101.9-6.9zm199 25.6c-63.1-24.5-147.8-60.9-166.1-87-5.3-7.6 92.6 14.8 169.3 33.2-.5 14.7-1.4 33-3.2 53.8zm28.9 176c10.8-37.3 19.2-84.5 24.9-137.2 9.6-1.2 17.9-12.6 17.9-12.6s-6-2-16.2-5.6c1.6-17.1 2.9-34.7 3.9-52.7 15.1 13.2 32.1 26.2 51.3 38.9 90.4 59.8 183.6 99.7 57.8 139.7-74.3 23.7-117 29.1-139.6 29.5zM1271.7 828c-56.7 43.3-176.6-1-208.1-14.1-27-11.2-131.9-60.7-111.5-137.7 20.1-76 191-98.5 206.1-99.5 0 0-125.3 96.1-144.8 137.7-5 10.7 22.6 25.2 32.2 23.1 6.4-1.4 39.2-59.7 129.7-66.3-.5-.5-13.6-14.8-47.3-8.1 0 0 78-73.4 116.6-88.4 33.5-13.1 3.9-27.9-5-34.2-17.1-12.1-28.1-15.1-63.3-5-13.4 3.8-42.2 10-75.9 18.8 6.3-2.3 12.6-4.7 18.7-7.3 75.2-31.8 76.3-49.5 70.4-72.4-7-27.1-51.9-48.1-80.4-61.8-2.4-1.2-6.4-3.1-11.7-5.9 44-3.5 64.8 8.5 87.4 23 18.2 11.7 38.7 45.2 52.3 56.3 11.3 9.3 22.2 16.8 33 22.8-6.3 36.1-2.1 80.8 6.8 123.9 19 91.5 52.8 150.9-5.2 195.1z"/>C1295.9,724.4,1329.7,783.8,1271.7,828z&quot;/&gt;<path d="M1459.1 559.3c21.1-20.7-13.7-19.8-16.1-19.8-2.3 0-30.7 2.9-33.8 7-20.1 26.3-62 95.5-64 115.6-1 9.8 25.1 7 29.5 3.7 4-3.1 39.5-62.3 84.4-106.5zM1479.9 578.7c-7.4-4.7-22.1-6.4-27.8-1.7 0 0-36.5 44.5-58 91.1-3.9 8.5 18.8 12 21.8 8.7 18.3-20 67.9-72.9 75.4-80.7 6.3-6.6-6.2-14-11.4-17.4z"/></svg>